<svg xmlns="http://www.w3.org/2000/svg" width="128" height="128" viewBox="0 0 128 128">
  <rect x="10" y="10" width="108" height="108" rx="28" fill="#111827"/>
  <path d="M38 86V42h16c10 0 16 5 16 13 0 6-3 10-9 12l12 19H55L45 69h-2v17H38zm12-26h3c5 0 8-2 8-5s-3-5-8-5h-3v10z" fill="#ffffff"/>
  <path d="M78 86V42h12v17h2l12-17h14L104 63l16 23h-14L92 68h-2v18H78z" fill="#ffffff"/>
  <circle cx="100" cy="40" r="6" fill="#22C55E"/>
  <path d="M95 44 L86 52" stroke="#22C55E" stroke-width="3" stroke-linecap="round"/>
</svg>
